HIERARCHY
ROOT mixamorig:Hips
{
	OFFSET -0.000008 104.274872 1.554316
	CHANNELS 6 Xposition Yposition Zposition Xrotation Yrotation Zrotation
	JOINT mixamorig:Spine
	{
		OFFSET -0.000005 10.181595 0.131519
		CHANNELS 6 Xposition Yposition Zposition Xrotation Yrotation Zrotation
		JOINT mixamorig:Spine1
		{
			OFFSET -0.000000 9.893959 -1.470707
			CHANNELS 6 Xposition Yposition Zposition Xrotation Yrotation Zrotation
			JOINT mixamorig:Spine2
			{
				OFFSET -0.000000 9.220757 -1.370641
				CHANNELS 6 Xposition Yposition Zposition Xrotation Yrotation Zrotation
				JOINT mixamorig:Neck
				{
					OFFSET 0.000001 16.740417 -2.049036
					CHANNELS 6 Xposition Yposition Zposition Xrotation Yrotation Zrotation
					JOINT mixamorig:Head
					{
						OFFSET 0.000000 9.617874 1.685006
						CHANNELS 6 Xposition Yposition Zposition Xrotation Yrotation Zrotation
						JOINT mixamorig:HeadTop_End
						{
							OFFSET 0.000002 22.037354 7.501101
							CHANNELS 6 Xposition Yposition Zposition Xrotation Yrotation Zrotation
							End Site
							{
								OFFSET 0.000168 2310.654297 -282.823242
							}
						}
					}
				}
				JOINT mixamorig:RightShoulder
				{
					OFFSET -4.569970 11.014908 -2.160885
					CHANNELS 6 Xposition Yposition Zposition Xrotation Yrotation Zrotation
					JOINT mixamorig:RightArm
					{
						OFFSET -10.592851 -0.524811 -2.232101
						CHANNELS 6 Xposition Yposition Zposition Xrotation Yrotation Zrotation
						JOINT mixamorig:RightForeArm
						{
							OFFSET -27.841511 0.000031 -0.000004
							CHANNELS 6 Xposition Yposition Zposition Xrotation Yrotation Zrotation
							JOINT mixamorig:RightHand
							{
								OFFSET -28.328831 -0.000015 0.000015
								CHANNELS 6 Xposition Yposition Zposition Xrotation Yrotation Zrotation
								JOINT mixamorig:RightHandThumb1
								{
									OFFSET -2.464806 -1.573990 2.681852
									CHANNELS 6 Xposition Yposition Zposition Xrotation Yrotation Zrotation
									JOINT mixamorig:RightHandThumb2
									{
										OFFSET -3.215179 -1.872803 1.924282
										CHANNELS 6 Xposition Yposition Zposition Xrotation Yrotation Zrotation
										JOINT mixamorig:RightHandThumb3
										{
											OFFSET -2.654831 -1.527969 1.512609
											CHANNELS 6 Xposition Yposition Zposition Xrotation Yrotation Zrotation
											JOINT mixamorig:RightHandThumb4
											{
												OFFSET -2.018814 -1.152008 1.108052
												CHANNELS 6 Xposition Yposition Zposition Xrotation Yrotation Zrotation
												End Site
												{
													OFFSET -188.809540 -114.533607 132.431396
												}
											}
										}
									}
								}
								JOINT mixamorig:RightHandIndex1
								{
									OFFSET -9.108284 -0.517868 2.259835
									CHANNELS 6 Xposition Yposition Zposition Xrotation Yrotation Zrotation
									JOINT mixamorig:RightHandIndex2
									{
										OFFSET -3.699989 0.000000 0.001215
										CHANNELS 6 Xposition Yposition Zposition Xrotation Yrotation Zrotation
										JOINT mixamorig:RightHandIndex3
										{
											OFFSET -2.850006 0.000031 -0.000522
											CHANNELS 6 Xposition Yposition Zposition Xrotation Yrotation Zrotation
											JOINT mixamorig:RightHandIndex4
											{
												OFFSET -2.772186 -0.000015 -0.000020
												CHANNELS 6 Xposition Yposition Zposition Xrotation Yrotation Zrotation
												End Site
												{
													OFFSET -277.218445 0.000000 -0.050231
												}
											}
										}
									}
								}
								JOINT mixamorig:RightHandMiddle1
								{
									OFFSET -9.532516 -0.000031 -0.000023
									CHANNELS 6 Xposition Yposition Zposition Xrotation Yrotation Zrotation
									JOINT mixamorig:RightHandMiddle2
									{
										OFFSET -3.700005 -0.000015 0.003713
										CHANNELS 6 Xposition Yposition Zposition Xrotation Yrotation Zrotation
										JOINT mixamorig:RightHandMiddle3
										{
											OFFSET -2.949974 0.000015 -0.002054
											CHANNELS 6 Xposition Yposition Zposition Xrotation Yrotation Zrotation
											JOINT mixamorig:RightHandMiddle4
											{
												OFFSET -2.946640 0.000000 -0.000156
												CHANNELS 6 Xposition Yposition Zposition Xrotation Yrotation Zrotation
												End Site
												{
													OFFSET -294.664337 0.000000 -0.113670
												}
											}
										}
									}
								}
								JOINT mixamorig:RightHandRing1
								{
									OFFSET -9.103600 -0.043076 -1.865134
									CHANNELS 6 Xposition Yposition Zposition Xrotation Yrotation Zrotation
									JOINT mixamorig:RightHandRing2
									{
										OFFSET -3.379288 0.000000 -0.001055
										CHANNELS 6 Xposition Yposition Zposition Xrotation Yrotation Zrotation
										JOINT mixamorig:RightHandRing3
										{
											OFFSET -2.889687 -0.000015 0.000379
											CHANNELS 6 Xposition Yposition Zposition Xrotation Yrotation Zrotation
											JOINT mixamorig:RightHandRing4
											{
												OFFSET -2.638809 -0.000015 0.000941
												CHANNELS 6 Xposition Yposition Zposition Xrotation Yrotation Zrotation
												End Site
												{
													OFFSET -263.880371 0.000000 0.516020
												}
											}
										}
									}
								}
								JOINT mixamorig:RightHandPinky1
								{
									OFFSET -8.076683 -0.486710 -3.806280
									CHANNELS 6 Xposition Yposition Zposition Xrotation Yrotation Zrotation
									JOINT mixamorig:RightHandPinky2
									{
										OFFSET -3.600014 -0.000015 -0.003747
										CHANNELS 6 Xposition Yposition Zposition Xrotation Yrotation Zrotation
										JOINT mixamorig:RightHandPinky3
										{
											OFFSET -2.099983 0.000000 -0.005739
											CHANNELS 6 Xposition Yposition Zposition Xrotation Yrotation Zrotation
											JOINT mixamorig:RightHandPinky4
											{
												OFFSET -2.115768 -0.000031 -0.003680
												CHANNELS 6 Xposition Yposition Zposition Xrotation Yrotation Zrotation
												End Site
												{
													OFFSET -211.577087 0.000000 -0.350686
												}
											}
										}
									}
								}
							}
						}
					}
				}
				JOINT mixamorig:LeftShoulder
				{
					OFFSET 4.570447 11.014725 -2.160855
					CHANNELS 6 Xposition Yposition Zposition Xrotation Yrotation Zrotation
					JOINT mixamorig:LeftArm
					{
						OFFSET 10.592371 -0.524597 -2.232119
						CHANNELS 6 Xposition Yposition Zposition Xrotation Yrotation Zrotation
						JOINT mixamorig:LeftForeArm
						{
							OFFSET 27.841532 -0.000031 0.000026
							CHANNELS 6 Xposition Yposition Zposition Xrotation Yrotation Zrotation
							JOINT mixamorig:LeftHand
							{
								OFFSET 28.328846 -0.000061 0.000022
								CHANNELS 6 Xposition Yposition Zposition Xrotation Yrotation Zrotation
								JOINT mixamorig:LeftHandThumb1
								{
									OFFSET 2.466141 -1.576172 2.681732
									CHANNELS 6 Xposition Yposition Zposition Xrotation Yrotation Zrotation
									JOINT mixamorig:LeftHandThumb2
									{
										OFFSET 3.217812 -1.872070 1.916482
										CHANNELS 6 Xposition Yposition Zposition Xrotation Yrotation Zrotation
										JOINT mixamorig:LeftHandThumb3
										{
											OFFSET 2.656029 -1.528778 1.514513
											CHANNELS 6 Xposition Yposition Zposition Xrotation Yrotation Zrotation
											JOINT mixamorig:LeftHandThumb4
											{
												OFFSET 2.020889 -1.154053 1.115139
												CHANNELS 6 Xposition Yposition Zposition Xrotation Yrotation Zrotation
												End Site
												{
													OFFSET 190.885437 -115.081749 130.048782
												}
											}
										}
									}
								}
								JOINT mixamorig:LeftHandIndex1
								{
									OFFSET 9.109314 -0.518021 2.259871
									CHANNELS 6 Xposition Yposition Zposition Xrotation Yrotation Zrotation
									JOINT mixamorig:LeftHandIndex2
									{
										OFFSET 3.699989 0.000000 -0.000322
										CHANNELS 6 Xposition Yposition Zposition Xrotation Yrotation Zrotation
										JOINT mixamorig:LeftHandIndex3
										{
											OFFSET 2.850006 0.000000 0.000352
											CHANNELS 6 Xposition Yposition Zposition Xrotation Yrotation Zrotation
											JOINT mixamorig:LeftHandIndex4
											{
												OFFSET 2.774864 -0.000031 -0.000027
												CHANNELS 6 Xposition Yposition Zposition Xrotation Yrotation Zrotation
												End Site
												{
													OFFSET 277.486267 0.000000 -0.009857
												}
											}
										}
									}
								}
								JOINT mixamorig:LeftHandMiddle1
								{
									OFFSET 9.533394 0.000061 0.000044
									CHANNELS 6 Xposition Yposition Zposition Xrotation Yrotation Zrotation
									JOINT mixamorig:LeftHandMiddle2
									{
										OFFSET 3.699989 -0.000015 -0.000231
										CHANNELS 6 Xposition Yposition Zposition Xrotation Yrotation Zrotation
										JOINT mixamorig:LeftHandMiddle3
										{
											OFFSET 2.949997 -0.000015 -0.000059
											CHANNELS 6 Xposition Yposition Zposition Xrotation Yrotation Zrotation
											JOINT mixamorig:LeftHandMiddle4
											{
												OFFSET 2.952896 0.000031 0.000063
												CHANNELS 6 Xposition Yposition Zposition Xrotation Yrotation Zrotation
												End Site
												{
													OFFSET 295.289337 0.000000 0.022810
												}
											}
										}
									}
								}
								JOINT mixamorig:LeftHandRing1
								{
									OFFSET 9.104523 -0.042999 -1.865074
									CHANNELS 6 Xposition Yposition Zposition Xrotation Yrotation Zrotation
									JOINT mixamorig:LeftHandRing2
									{
										OFFSET 3.150009 -0.000031 0.000043
										CHANNELS 6 Xposition Yposition Zposition Xrotation Yrotation Zrotation
										JOINT mixamorig:LeftHandRing3
										{
											OFFSET 2.949982 -0.000015 0.000040
											CHANNELS 6 Xposition Yposition Zposition Xrotation Yrotation Zrotation
											JOINT mixamorig:LeftHandRing4
											{
												OFFSET 2.644348 0.000000 0.000057
												CHANNELS 6 Xposition Yposition Zposition Xrotation Yrotation Zrotation
												End Site
												{
													OFFSET 264.434631 0.000000 0.012105
												}
											}
										}
									}
								}
								JOINT mixamorig:LeftHandPinky1
								{
									OFFSET 8.077789 -0.486847 -3.806259
									CHANNELS 6 Xposition Yposition Zposition Xrotation Yrotation Zrotation
									JOINT mixamorig:LeftHandPinky2
									{
										OFFSET 3.599953 0.000031 0.014727
										CHANNELS 6 Xposition Yposition Zposition Xrotation Yrotation Zrotation
										JOINT mixamorig:LeftHandPinky3
										{
											OFFSET 2.100021 0.000015 0.007705
											CHANNELS 6 Xposition Yposition Zposition Xrotation Yrotation Zrotation
											JOINT mixamorig:LeftHandPinky4
											{
												OFFSET 2.125504 0.000031 0.007517
												CHANNELS 6 Xposition Yposition Zposition Xrotation Yrotation Zrotation
												End Site
												{
													OFFSET 212.550781 0.000000 0.625752
												}
											}
										}
									}
								}
							}
						}
					}
				}
			}
		}
	}
	JOINT mixamorig:RightUpLeg
	{
		OFFSET -8.207787 -6.751648 -1.599560
		CHANNELS 6 Xposition Yposition Zposition Xrotation Yrotation Zrotation
		JOINT mixamorig:RightLeg
		{
			OFFSET -0.000002 -44.370117 0.345942
			CHANNELS 6 Xposition Yposition Zposition Xrotation Yrotation Zrotation
			JOINT mixamorig:RightFoot
			{
				OFFSET 0.000003 -44.423679 -3.043532
				CHANNELS 6 Xposition Yposition Zposition Xrotation Yrotation Zrotation
				JOINT mixamorig:RightToeBase
				{
					OFFSET -0.000002 -8.728671 10.710558
					CHANNELS 6 Xposition Yposition Zposition Xrotation Yrotation Zrotation
					JOINT mixamorig:RightToe_End
					{
						OFFSET -0.000001 -0.000679 9.278119
						CHANNELS 6 Xposition Yposition Zposition Xrotation Yrotation Zrotation
						End Site
						{
							OFFSET 0.000000 -0.067690 927.812134
						}
					}
				}
			}
		}
	}
	JOINT mixamorig:LeftUpLeg
	{
		OFFSET 8.207793 -6.751686 -1.599556
		CHANNELS 6 Xposition Yposition Zposition Xrotation Yrotation Zrotation
		JOINT mixamorig:LeftLeg
		{
			OFFSET -0.000004 -44.370014 0.346954
			CHANNELS 6 Xposition Yposition Zposition Xrotation Yrotation Zrotation
			JOINT mixamorig:LeftFoot
			{
				OFFSET -0.000001 -44.423672 -3.044401
				CHANNELS 6 Xposition Yposition Zposition Xrotation Yrotation Zrotation
				JOINT mixamorig:LeftToeBase
				{
					OFFSET -0.000002 -8.728669 10.710558
					CHANNELS 6 Xposition Yposition Zposition Xrotation Yrotation Zrotation
					JOINT mixamorig:LeftToe_End
					{
						OFFSET -0.000003 -0.000679 9.278133
						CHANNELS 6 Xposition Yposition Zposition Xrotation Yrotation Zrotation
						End Site
						{
							OFFSET 0.000000 -0.068021 927.813477
						}
					}
				}
			}
		}
	}
}
MOTION
Frames: 3
Frame Time: 0.033333
0.000006 104.270477 1.554256 0.000010 0.000003 -0.000113 -0.000005 10.181587 0.131522 0.000001 -0.000003 0.000084 -0.000000 9.893967 -1.470711 0.000001 0.000000 -0.000000 -0.000000 9.220802 -1.370642 0.000000 -0.000000 -0.000000 0.000001 16.740433 -2.049030 0.000000 -0.000000 -0.000000 0.000000 9.617859 1.685014 0.000000 0.000000 0.000000 0.000002 22.037384 7.501101 0.000000 -0.000000 0.000000 -4.569968 11.014880 -2.160881 0.000008 0.000001 -0.000038 -10.592875 -0.524773 -2.231899 74.495541 30.672723 -23.558057 -27.841511 0.000007 0.000556 -49.231573 110.373412 66.761151 -28.328814 0.000005 0.000030 -0.000319 -0.000046 0.000007 -2.464425 -1.573918 2.682366 -28.375857 -148.738912 27.096315 -3.215263 -1.872568 1.924644 154.220590 33.300399 14.632837 -2.654972 -1.527870 1.513088 145.507099 27.411793 -34.808840 -2.018815 -1.152012 1.108060 -0.000006 0.000001 0.000004 -9.108380 -0.517565 2.260162 108.202395 15.236342 -21.001411 -3.700052 0.000321 0.001549 105.098785 10.547681 -13.713634 -2.850076 0.000378 -0.000235 102.599967 8.075616 -10.069605 -2.772185 0.000003 -0.000024 -0.000000 -0.000003 -0.000001 -9.532594 0.000262 0.000275 100.967224 16.062015 -19.585865 -3.700067 0.000345 0.003999 100.016523 9.102166 -10.732320 -2.950039 0.000354 -0.001769 100.793095 9.201009 -11.101439 -2.946624 0.000012 -0.000156 -0.000002 -0.000003 -0.000000 -9.103708 -0.042755 -1.864837 97.914628 17.720289 -20.251591 -3.379325 0.000313 -0.000782 99.391198 8.000643 -9.446616 -2.889755 0.000349 0.000682 104.718753 6.321521 -8.249602 -2.638811 -0.000001 0.000942 -0.000000 -0.000001 0.000001 -8.076756 -0.486403 -3.806011 87.879891 20.874562 -19.981727 -3.600046 0.000267 -0.003512 89.978918 10.417361 -10.049821 -2.100032 0.000318 -0.005463 95.381536 5.995231 -6.343179 -2.115762 -0.000060 -0.003681 0.000000 -0.000001 -0.000002 4.570446 11.014691 -2.160851 -0.000018 0.000010 -0.000021 10.592472 -0.524590 -2.232338 21.599404 -67.405580 14.501783 27.841749 -0.000052 -0.000101 227.610494 -73.502329 241.146058 28.328833 -0.000043 0.000018 0.000022 -0.000090 -0.000000 2.465921 -1.576131 2.681874 -228.545943 30.531823 192.475755 3.217684 -1.872060 1.916557 -11.037149 137.048866 -44.331503 2.655972 -1.528820 1.514632 -177.035908 32.698820 110.591076 2.020883 -1.154068 1.115148 0.000002 0.000005 0.000006 9.109388 -0.517975 2.259903 167.545865 -17.831679 110.288424 3.700036 -0.000017 -0.000266 170.352472 -18.756811 125.971761 2.849924 -0.000005 0.000413 177.896512 -13.165104 -198.089829 2.774889 -0.000018 -0.000025 0.000001 0.000002 -0.000001 9.533516 0.000115 0.000086 166.687065 -16.789503 -256.728069 3.699904 -0.000036 -0.000157 175.970385 -19.736545 517.119195 2.949843 -0.000007 0.000016 180.510671 -13.657802 544.282038 2.952864 -0.000029 0.000063 -0.000001 -0.000000 0.000000 9.104650 -0.042803 -1.865144 133.431065 -20.631577 45.856476 3.150038 0.000183 -0.000115 82.574795 -8.461212 7.434684 2.949983 0.000155 -0.000158 65.922001 7.562624 -4.907234 2.644320 0.000030 0.000037 -0.000001 0.000002 -0.000001 8.077908 -0.486595 -3.806336 130.981650 -16.265173 36.086707 3.599963 0.000291 0.014537 98.364532 0.310693 0.128477 2.099950 0.000206 0.007502 84.156550 11.692040 -10.277965 2.125498 -0.000001 0.007509 -0.000001 0.000001 0.000002 -8.207786 -6.751667 -1.599560 -0.077001 -0.000003 0.000080 -0.000002 -44.370110 0.345938 0.153719 -0.000000 -0.000000 0.000000 -44.423679 -3.043532 -0.076700 0.000000 -0.000002 -0.000006 -8.728667 10.710559 -0.000009 -0.000000 -0.000000 -0.000001 -0.000679 9.278123 0.000000 -0.000000 -0.000000 8.207792 -6.751710 -1.599556 -0.074518 -0.000003 0.000081 -0.000002 -44.370014 0.346960 0.148822 0.000002 0.000000 -0.000001 -44.423664 -3.044403 -0.074314 0.000000 -0.000002 -0.000004 -8.728671 10.710558 0.000007 -0.000000 -0.000000 0.000000 -0.000680 9.278137 -0.000000 0.000000 -0.000001 
0.000006 104.270477 1.554256 0.000010 0.000003 -0.000113 -0.000005 10.181587 0.131522 0.000001 -0.000003 0.000084 -0.000000 9.893967 -1.470711 0.000001 0.000000 -0.000000 -0.000000 9.220802 -1.370642 0.000000 -0.000000 -0.000000 0.000001 16.740433 -2.049030 0.000000 -0.000000 -0.000000 0.000000 9.617859 1.685014 0.000000 0.000000 0.000000 0.000002 22.037384 7.501101 0.000000 -0.000000 0.000000 -4.569968 11.014880 -2.160881 0.000008 0.000001 -0.000038 -10.592875 -0.524781 -2.231886 74.147707 32.615588 -24.930450 -27.841518 -0.000004 0.000556 -48.846573 109.169632 65.127541 -28.328806 0.000019 0.000029 -0.000320 -0.000044 0.000004 -2.464420 -1.573955 2.682367 -26.809459 -148.529389 29.809124 -3.215267 -1.872558 1.924639 155.297943 33.083995 12.036141 -2.654947 -1.527891 1.513077 145.369047 27.347261 -35.906964 -2.018827 -1.152005 1.108067 0.000001 -0.000003 0.000002 -9.108379 -0.517562 2.260162 108.014155 15.227314 -20.918286 -3.700047 0.000326 0.001547 105.086190 10.282805 -13.366909 -2.850085 0.000376 -0.000235 102.306323 7.755909 -9.621215 -2.772170 -0.000016 -0.000019 -0.000001 -0.000001 -0.000000 -9.532576 0.000273 0.000279 101.066589 15.880267 -19.400847 -3.700040 0.000331 0.003985 100.351352 8.744910 -10.369045 -2.950045 0.000356 -0.001779 100.623392 8.865304 -10.664868 -2.946613 0.000002 -0.000152 0.000000 0.000002 0.000001 -9.103696 -0.042762 -1.864833 98.002361 17.377456 -19.890962 -3.379343 0.000322 -0.000778 99.934096 7.817860 -9.320252 -2.889764 0.000348 0.000684 104.830426 6.182894 -8.086333 -2.638819 0.000001 0.000941 -0.000000 -0.000001 -0.000002 -8.076771 -0.486407 -3.806006 87.930284 20.682791 -19.813814 -3.600046 0.000266 -0.003506 90.133253 10.438426 -10.097806 -2.100000 0.000320 -0.005475 95.475328 6.055822 -6.420021 -2.115783 -0.000047 -0.003680 -0.000002 -0.000001 -0.000000 4.570446 11.014691 -2.160851 -0.000018 0.000010 -0.000021 10.592468 -0.524590 -2.232337 19.274905 -67.756686 13.008985 27.841753 -0.000070 -0.000096 228.977024 -73.364339 242.889614 28.328838 -0.000030 0.000023 0.000019 -0.000089 0.000000 2.465945 -1.576159 2.681874 -223.913586 36.052932 183.908349 3.217692 -1.872078 1.916553 -6.621491 137.220536 -50.694569 2.656021 -1.528815 1.514623 -172.442469 29.551264 101.899647 2.020876 -1.154083 1.115145 0.000002 0.000002 0.000002 9.109430 -0.517949 2.259906 164.986798 -18.864749 103.092758 3.700003 -0.000035 -0.000265 170.739088 -21.742107 134.353796 2.849915 -0.000026 0.000439 177.633700 -15.725988 -197.019607 2.774894 -0.000030 -0.000020 0.000004 0.000000 0.000000 9.533547 0.000219 0.000031 151.594655 -17.870384 -296.334205 3.700131 0.000113 -0.000211 157.381806 -19.079739 440.071957 2.950137 0.000155 -0.000020 162.338638 -13.629226 435.153101 2.952862 -0.000025 0.000065 -0.000002 -0.000001 0.000002 9.104659 -0.042779 -1.865144 127.163957 -19.953506 39.000629 3.150015 0.000175 -0.000100 73.623272 -4.895995 3.666452 2.949960 0.000139 -0.000137 58.870787 9.669083 -5.464305 2.644315 0.000001 0.000059 0.000004 0.000001 0.000001 8.077900 -0.486609 -3.806350 127.983197 -15.825839 32.994926 3.599948 0.000261 0.014525 89.796367 3.035322 -2.625115 2.099937 0.000174 0.007515 74.782362 13.980868 -10.482746 2.125492 -0.000013 0.007504 0.000000 0.000002 0.000001 -8.207786 -6.751667 -1.599560 -0.077001 -0.000003 0.000080 -0.000002 -44.370110 0.345938 0.153719 -0.000000 -0.000000 0.000000 -44.423679 -3.043532 -0.076700 0.000000 -0.000002 -0.000006 -8.728667 10.710559 -0.000009 -0.000000 -0.000000 -0.000001 -0.000679 9.278123 0.000000 -0.000000 -0.000000 8.207792 -6.751710 -1.599556 -0.074518 -0.000003 0.000081 -0.000002 -44.370014 0.346960 0.148822 0.000002 0.000000 -0.000001 -44.423664 -3.044403 -0.074314 0.000000 -0.000002 -0.000004 -8.728671 10.710558 0.000007 -0.000000 -0.000000 0.000000 -0.000680 9.278137 -0.000000 0.000000 -0.000001 
0.000006 104.270477 1.554256 0.000010 0.000003 -0.000113 -0.000005 10.181587 0.131522 0.000001 -0.000003 0.000084 -0.000000 9.893967 -1.470711 0.000001 0.000000 -0.000000 -0.000000 9.220802 -1.370642 0.000000 -0.000000 -0.000000 0.000001 16.740433 -2.049030 0.000000 -0.000000 -0.000000 0.000000 9.617859 1.685014 0.000000 0.000000 0.000000 0.000002 22.037384 7.501101 0.000000 -0.000000 0.000000 -4.569968 11.014880 -2.160881 0.000008 0.000001 -0.000038 -10.592876 -0.524765 -2.231905 74.167351 28.530771 -21.756576 -27.841511 -0.000011 0.000554 -48.826287 110.318859 66.215563 -28.328829 0.000007 0.000020 -0.000323 -0.000044 0.000004 -2.464421 -1.573914 2.682373 -28.813191 -149.479988 26.716896 -3.215278 -1.872575 1.924647 155.016566 33.264988 13.430637 -2.654959 -1.527873 1.513075 145.562697 27.311860 -35.895434 -2.018842 -1.151998 1.108057 -0.000003 -0.000001 0.000002 -9.108374 -0.517553 2.260171 108.045786 15.310158 -21.042556 -3.700049 0.000331 0.001545 105.504703 10.553110 -13.820849 -2.850088 0.000375 -0.000238 103.419630 8.055458 -10.192312 -2.772192 0.000002 -0.000021 0.000001 -0.000003 -0.000001 -9.532585 0.000267 0.000267 100.818059 15.672468 -19.067487 -3.700062 0.000323 0.003982 100.261330 8.775313 -10.388848 -2.950038 0.000354 -0.001793 100.801899 8.999122 -10.859840 -2.946631 0.000013 -0.000153 -0.000000 -0.000003 -0.000001 -9.103703 -0.042757 -1.864837 97.762021 17.112370 -19.507140 -3.379307 0.000333 -0.000778 100.062189 7.362858 -8.799367 -2.889742 0.000344 0.000676 104.966620 5.944963 -7.796704 -2.638796 -0.000015 0.000940 0.000000 0.000004 -0.000002 -8.076752 -0.486384 -3.806028 87.928987 20.267294 -19.412245 -3.600045 0.000284 -0.003498 90.691211 9.615218 -9.366765 -2.100013 0.000326 -0.005463 95.410475 5.567376 -5.877788 -2.115762 -0.000047 -0.003674 -0.000005 -0.000000 0.000001 4.570446 11.014691 -2.160851 -0.000018 0.000010 -0.000021 10.592464 -0.524589 -2.232335 17.848514 -66.086301 11.664518 27.841749 -0.000094 -0.000091 230.143279 -72.818908 244.776549 28.328829 -0.000013 0.000024 0.000019 -0.000088 0.000001 2.465963 -1.576185 2.681865 -218.530140 42.386067 175.564876 3.217713 -1.872060 1.916546 -2.165335 135.238538 -55.393869 2.656003 -1.528775 1.514618 -169.817040 30.990791 99.916119 2.020887 -1.154083 1.115150 0.000002 0.000003 0.000004 9.109452 -0.517856 2.259868 154.825895 -18.306302 71.577480 3.700098 0.000096 -0.000314 156.917080 -22.047897 87.373925 2.850129 0.000153 0.000365 161.730670 -16.229428 -276.877837 2.774878 -0.000029 -0.000024 -0.000000 -0.000000 0.000001 9.533551 0.000241 0.000040 153.622306 -16.405484 -296.842289 3.700143 0.000102 -0.000204 157.399660 -19.487447 441.336307 2.950153 0.000179 -0.000042 159.234413 -14.536541 429.698047 2.952870 -0.000014 0.000064 -0.000000 0.000001 -0.000002 9.104647 -0.042788 -1.865170 127.008338 -19.003789 37.124598 3.150018 0.000171 -0.000098 72.940369 -6.254033 4.626046 2.949955 0.000154 -0.000139 55.851628 8.735027 -4.635830 2.644320 0.000028 0.000053 -0.000003 0.000000 -0.000001 8.077878 -0.486588 -3.806354 126.576314 -13.689085 27.973755 3.599936 0.000255 0.014528 86.496532 4.871756 -4.219464 2.099943 0.000192 0.007499 68.304808 15.029042 -10.036024 2.125517 0.000001 0.007505 -0.000000 0.000003 0.000000 -8.207786 -6.751667 -1.599560 -0.077001 -0.000003 0.000080 -0.000002 -44.370110 0.345938 0.153719 -0.000000 -0.000000 0.000000 -44.423679 -3.043532 -0.076700 0.000000 -0.000002 -0.000006 -8.728667 10.710559 -0.000009 -0.000000 -0.000000 -0.000001 -0.000679 9.278123 0.000000 -0.000000 -0.000000 8.207792 -6.751710 -1.599556 -0.074518 -0.000003 0.000081 -0.000002 -44.370014 0.346960 0.148822 0.000002 0.000000 -0.000001 -44.423664 -3.044403 -0.074314 0.000000 -0.000002 -0.000004 -8.728671 10.710558 0.000007 -0.000000 -0.000000 0.000000 -0.000680 9.278137 -0.000000 0.000000 -0.000001 
